<svg version="1.1" id="svg1948" xmlns="http://www.w3.org/2000/svg" x="0" y="0" viewBox="0 0 519.9 504" xml:space="preserve"><style>.st2{fill-rule:evenodd;clip-rule:evenodd;fill:#231f20}</style><g id="layer1" transform="translate(-120.972 -283.033)"><g id="g2082" transform="translate(8.862 8.852)"><path id="path2006" d="M169.9 287.1c-25.6-.1-47.5 24.5-44.9 49.9.2 129.3-.5 258.6.3 387.9 2.4 23.9 26 42.8 49.8 40.4 134.5-.2 269.1.4 403.6-.3 23.7-2.5 42.7-26 40.2-49.8-.2-129.3.5-258.5-.2-387.8-2.4-23.7-26-42.8-49.9-40.3-132.9-.1-265.9-.1-398.9 0z" fill-rule="evenodd" clip-rule="evenodd" fill="#fff"/><path id="path10" d="M301.5 437.2c-7.6 30.5-23.7 77.2-23.7 77.2l-31.2.2s-11.7-40.5-19.5-66.3c-5.9-19.6-13.3-52.8-13.3-52.8l.1 119.1h-30.6L183 362h49.1c1.9 6.1 12.7 40 17.9 58.2 10.3 35.6 12.3 57.2 12.3 57.2s.6-22.5 12.1-58.2c5.8-18 17-57.7 17-57.7h49.9v153H311l-.2-120.1c-.1-.1-5.2 26.1-9.3 42.8" fill="#231f20"/><path id="path12" class="st2" d="M280 662.4c0 3-2.7 7-8.4 6.6h-58V554.3l58 .1c6.8-.3 8.4 3.3 8.4 6.3v101.7zm-96.7 35h78.5c18.2 0 48.8-8.4 48.8-48.8v-73.7c-1.1-40.3-30.5-48.7-48.8-48.7h-78.5v171.2"/><path id="path14" class="st2" d="M439.1 435.7v69.8h-15.9l.2-68.7c0-9.3 8.6-18.2 19.3-18.2h39.4c10.6 0 20.2 8.4 20.2 18.2l.2 68.7h-16.8v-69.8h-46.6zm3.6-26c-15.8 0-28.5 12-28.5 27l-.1 3.4-.2 74.3 34.7-.1.2-70.3h28l-.2 70.3 34.7.1.2-74.3-.1-3.4c-.1-13.9-13.7-27-29.4-27h-39.3"/><path id="path16" class="st2" d="M403.5 626.5v-28.8H457v-17h-54.3c-10.8 0-14.8 7.2-14.8 14.7V627c0 13.1 6.5 15.9 14.7 15.9H442v28.7h-52.9v16.9H444c10.8 0 14.9-6.9 14.9-14.7v-31.4c0-10.2-5.8-15.8-14.9-15.8h-40.5zm9.9-8.8h30.9c19.3.1 23.6 14.3 23.6 24.1v30.8c0 18.6-13.4 24.9-24.7 24.9h-62.7v-34.9H433v-11.2s-11.2.1-31.4.1-23.6-14.9-23.6-24.9v-31.2c0-18.4 13.7-23.2 23.6-23.2h64v34.4h-52.3v11.1"/><path id="path18" class="st2" d="M490.2 594.8c0-10.7 7.4-14.2 15.3-14.2h48.6v16.8h-47.6l-.1 74 48.8.2-.1 16.3h-49.6c-7.9 0-15.3-4.1-15.3-13.2v-79.9zm-9 79.2c0 16.4 12.6 23.3 24.9 23.3h57.8l.1-34.8h-48v-55.8h48l-.1-34.8H506c-14.3 0-24.9 6.9-24.9 23.3V674"/><path id="path20" class="st2" d="M537.6 369.4h16.6v18.9h-16.6v-18.9zm-9.2-8h35.1v34.9h-35.1v-34.9z"/><path id="path22" class="st2" d="M538.2 418.3h16v87.2h-16v-87.2zm-9.6-8.6h35.3v104.7h-35.3V409.7z"/><path id="path24" class="st2" d="M337.2 534.2h16.6v18.9h-16.6v-18.9zm-9.2-7.9h35v34.9h-35v-34.9z"/><path id="path26" class="st2" d="M337.8 582.9h15.9v103.9h-15.9V582.9zm-9.6-10.3h35.1v124.8h-35.1V572.6z"/><path id="path28" class="st2" d="M388.3 534.2h16.6v18.9h-16.6v-18.9zm-9.2-7.9h35.1v34.9h-35.1v-34.9z"/><path id="path30" class="st2" d="M438.5 534.2h16.6v18.9h-16.6v-18.9zm-9.2-7.9h35.1v34.9h-35.1v-34.9z"/><path id="path32" class="st2" d="M488.7 534.2h16.5v18.9h-16.5v-18.9zm-9.2-7.9h35v34.9h-35v-34.9z"/><path id="path34" class="st2" d="M538.8 534.2h16.6v18.9h-16.6v-18.9zm-9.1-7.9h35v34.9h-35v-34.9z"/><path id="path36" class="st2" d="M121 719.1V333.2c0-27.7 22.5-50.2 50.1-50.2h401.8c27.7 0 50.2 22.5 50.2 50.1l-.1 386.1c0 27.7-22.5 50.1-50.1 50.1H171.1c-27.6 0-50.1-22.5-50.1-50.1v-.1zm490.8-386c0-21.4-17.4-38.8-38.9-38.8H171.1c-21.4 0-38.8 17.4-38.8 38.9v386c0 21.4 17.4 38.8 38.8 38.8h401.8c21.4 0 38.8-17.4 38.8-38.8l.1-386.1"/><path id="path38" class="st2" d="M370.2 369.4h16.6v18.9h-16.6v-18.9zm-9.3-8h35v34.9h-35v-34.9z"/><path id="path40" class="st2" d="M370.7 418.3h16v87.2h-16v-87.2zm-9.5-8.6h35.2v104.7h-35.2V409.7z"/></g></g></svg>