<?xml version="1.0" encoding="utf-8"?>
<!-- Generator: Adobe Illustrator 24.1.0, SVG Export Plug-In . SVG Version: 6.00 Build 0)  -->
<svg version="1.1"
	 id="svg1948" xmlns:cc="http://web.resource.org/cc/" xmlns:dc="http://purl.org/dc/elements/1.1/" xmlns:inkscape="http://www.inkscape.org/namespaces/inkscape" xmlns:rdf="http://www.w3.org/1999/02/22-rdf-syntax-ns#" xmlns:sodipodi="http://sodipodi.sourceforge.net/DTD/sodipodi-0.dtd" xmlns:svg="http://www.w3.org/2000/svg"
	 xmlns="http://www.w3.org/2000/svg" xmlns:xlink="http://www.w3.org/1999/xlink" x="0px" y="0px" viewBox="0 0 519.9 504"
	 style="enable-background:new 0 0 519.9 504;" xml:space="preserve">
<style type="text/css">
	.st0{fill-rule:evenodd;clip-rule:evenodd;fill:#FFFFFF;}
	.st1{fill:#231F20;}
	.st2{fill-rule:evenodd;clip-rule:evenodd;fill:#231F20;}
</style>
<sodipodi:namedview  bordercolor="#666666" borderopacity="1.0" height="142.24mm" id="base" inkscape:current-layer="layer1" inkscape:cx="449.97786" inkscape:cy="377.58726" inkscape:document-units="px" inkscape:pageopacity="0.0" inkscape:pageshadow="2" inkscape:window-height="574" inkscape:window-width="904" inkscape:window-x="207" inkscape:window-y="207" inkscape:zoom="0.40264575" pagecolor="#ffffff" units="mm" width="146.72mm">
	</sodipodi:namedview>
<g id="layer1" transform="translate(-120.9723,-283.0332)" inkscape:groupmode="layer" inkscape:label="Ebene 1">
	<g id="g2082" transform="translate(8.862067,8.85206)">
		<path id="path2006" class="st0" d="M169.9,287.1c-25.6-0.1-47.5,24.5-44.9,49.9c0.2,129.3-0.5,258.6,0.3,387.9
			c2.4,23.9,26,42.8,49.8,40.4c134.5-0.2,269.1,0.4,403.6-0.3c23.7-2.5,42.7-26,40.2-49.8c-0.2-129.3,0.5-258.5-0.2-387.8
			c-2.4-23.7-26-42.8-49.9-40.3C435.9,287,302.9,287,169.9,287.1z"/>
		<path id="path10" class="st1" d="M301.5,437.2c-7.6,30.5-23.7,77.2-23.7,77.2l-31.2,0.2c0,0-11.7-40.5-19.5-66.3
			c-5.9-19.6-13.3-52.8-13.3-52.8l0.1,119.1h-30.6L183,362h49.1c1.9,6.1,12.7,40,17.9,58.2c10.3,35.6,12.3,57.2,12.3,57.2
			s0.6-22.5,12.1-58.2c5.8-18,17-57.7,17-57.7h49.9v153H311l-0.2-120.1C310.7,394.3,305.6,420.5,301.5,437.2"/>
		<path id="path12" class="st2" d="M280,662.4c0,3-2.7,7-8.4,6.6h-58V554.3l58,0.1c6.8-0.3,8.4,3.3,8.4,6.3V662.4z M183.3,697.4
			h78.5c18.2,0,48.8-8.4,48.8-48.8v-73.7c-1.1-40.3-30.5-48.7-48.8-48.7h-78.5V697.4"/>
		<path id="path14" class="st2" d="M439.1,435.7v69.8h-15.9l0.2-68.7c0-9.3,8.6-18.2,19.3-18.2h39.4c10.6,0,20.2,8.4,20.2,18.2
			l0.2,68.7h-16.8v-69.8H439.1z M442.7,409.7c-15.8,0-28.5,12-28.5,27l-0.1,3.4l-0.2,74.3l34.7-0.1l0.2-70.3h28l-0.2,70.3l34.7,0.1
			l0.2-74.3l-0.1-3.4c-0.1-13.9-13.7-27-29.4-27H442.7"/>
		<path id="path16" class="st2" d="M403.5,626.5v-28.8H457v-17h-54.3c-10.8,0-14.8,7.2-14.8,14.7V627c0,13.1,6.5,15.9,14.7,15.9
			h39.4v28.7h-52.9v16.9H444c10.8,0,14.9-6.9,14.9-14.7v-31.4c0-10.2-5.8-15.8-14.9-15.8H403.5z M413.4,617.7h30.9
			c19.3,0.1,23.6,14.3,23.6,24.1v30.8c0,18.6-13.4,24.9-24.7,24.9h-62.7v-34.9H433v-11.2c0,0-11.2,0.1-31.4,0.1
			c-20.2,0-23.6-14.9-23.6-24.9v-31.2c0-18.4,13.7-23.2,23.6-23.2h64v34.4h-52.3V617.7"/>
		<path id="path18" class="st2" d="M490.2,594.8c0-10.7,7.4-14.2,15.3-14.2h48.6v16.8h-47.6l-0.1,74l48.8,0.2l-0.1,16.3h-49.6
			c-7.9,0-15.3-4.1-15.3-13.2V594.8z M481.2,674c0,16.4,12.6,23.3,24.9,23.3h57.8l0.1-34.8h-48v-55.8h48l-0.1-34.8H506
			c-14.3,0-24.9,6.9-24.9,23.3V674"/>
		<path id="path20" class="st2" d="M537.6,369.4h16.6v18.9h-16.6V369.4z M528.4,361.4h35.1v34.9h-35.1V361.4z"/>
		<path id="path22" class="st2" d="M538.2,418.3h16v87.2h-16V418.3z M528.6,409.7h35.3v104.7h-35.3V409.7z"/>
		<path id="path24" class="st2" d="M337.2,534.2h16.6v18.9h-16.6V534.2z M328,526.3H363v34.9H328V526.3z"/>
		<path id="path26" class="st2" d="M337.8,582.9h15.9v103.9h-15.9V582.9z M328.2,572.6h35.1v124.8h-35.1V572.6z"/>
		<path id="path28" class="st2" d="M388.3,534.2h16.6v18.9h-16.6V534.2z M379.1,526.3h35.1v34.9h-35.1V526.3z"/>
		<path id="path30" class="st2" d="M438.5,534.2h16.6v18.9h-16.6V534.2z M429.3,526.3h35.1v34.9h-35.1V526.3z"/>
		<path id="path32" class="st2" d="M488.7,534.2h16.5v18.9h-16.5V534.2z M479.5,526.3h35v34.9h-35V526.3z"/>
		<path id="path34" class="st2" d="M538.8,534.2h16.6v18.9h-16.6V534.2z M529.7,526.3h35v34.9h-35V526.3z"/>
		<path id="path36" class="st2" d="M121,719.1V333.2c0-27.7,22.5-50.2,50.1-50.2h401.8c27.7,0,50.2,22.5,50.2,50.1L623,719.2
			c0,27.7-22.5,50.1-50.1,50.1H171.1c-27.6,0-50.1-22.5-50.1-50.1V719.1z M611.8,333.1c0-21.4-17.4-38.8-38.9-38.8H171.1
			c-21.4,0-38.8,17.4-38.8,38.9v386c0,21.4,17.4,38.8,38.8,38.8h401.8c21.4,0,38.8-17.4,38.8-38.8L611.8,333.1"/>
		<path id="path38" class="st2" d="M370.2,369.4h16.6v18.9h-16.6V369.4z M360.9,361.4h35v34.9h-35V361.4z"/>
		<path id="path40" class="st2" d="M370.7,418.3h16v87.2h-16V418.3z M361.2,409.7h35.2v104.7h-35.2V409.7z"/>
	</g>
</g>
</svg>
